<svg width="237" height="385" viewBox="0 0 237 385" fill="none" xmlns="http://www.w3.org/2000/svg">
<path d="M59.5641 156.112L52.1157 154.388L45.7303 151.594L45.8822 150.994L49.4811 151.29L59.2604 149.795C56.8155 149.415 54.3555 149.483 51.8803 149.476C50.9389 149.476 50.1188 149.825 49.1926 149.817C45.3659 149.787 41.6455 147.547 39.2614 144.677C38.9425 144.768 39.1323 145.391 39.1855 145.657C39.8385 148.739 42.587 153.72 44.8116 155.975C45.6544 156.833 47.5526 157.843 48.1448 158.655C48.8661 159.65 49.3064 162.33 49.9746 163.742C54.7807 173.856 64.8333 172.238 71.1504 179.869C72.1071 181.023 72.7752 182.481 73.7091 183.627C74.6886 184.827 76.7234 186.239 77.4523 187.409C78.4545 189.018 79.2973 193.672 79.7908 195.593C80.0262 196.497 82.1369 198.395 82.7823 199.519C83.4808 200.734 84.0503 202.237 84.2249 203.634C84.0123 203.862 82.2888 202.358 81.9851 202.123C79.0695 199.838 76.2602 197.423 73.4054 195.062C73.17 194.864 72.8056 194.272 72.5019 194.758L84.5286 206.792L79.32 204.78L78.6595 204.841L87.2316 209.951C85.7206 210.148 84.5741 209.807 83.1771 209.351L83.4732 209.959L52.4802 209.67L29.4821 208.455L79.7073 207.104L50.6807 191.311C50.377 190.62 51.1211 191.167 51.3413 191.258C51.8424 191.448 52.3283 191.706 52.8446 191.858L73.5497 201.834L73.99 201.69C68.3259 193.111 61.113 185.351 51.6374 181.031C42.4883 176.862 35.3968 175.777 27.6675 168.305C20.8949 161.761 18.7841 154.29 14.0767 146.704C11.1687 142.012 7.25854 137.479 1.65519 141.989L0 144.389C0.129074 139.75 4.00131 135.536 8.8378 135.999C16.3165 136.713 23.0436 147.547 29.0797 151.852C31.6992 153.72 34.8349 155.474 37.8947 156.415L34.8881 154.168C23.8408 143.789 28.3053 126.584 36.7027 115.977C40.4003 111.308 45.214 107.929 49.929 104.391C38.2971 105.074 27.1512 112.712 24.9645 124.542L24.3419 122.287C24.9569 110.738 33.1797 101.984 42.1162 95.6745C34.0908 98.9242 27.7738 105.864 24.9645 114.018C24.433 114.087 24.6684 113.335 24.7064 113.008C25.0708 109.615 27.2727 104.467 29.6643 102.022C32.7849 98.8406 32.6938 99.6151 35.1842 95.5151C38.4642 90.1319 50.6276 85.546 56.6865 85.136C64.1044 84.6349 72.3804 85.956 78.5076 90.261C76.5108 89.6004 74.5595 88.7804 72.4943 88.3021C64.3474 86.4343 57.5596 87.6339 49.9442 90.7241L46.0264 92.6679C65.3117 85.136 86.5027 93.9814 100.162 108.005C98.6357 107.451 97.4588 106.168 96.039 105.363C95.7733 105.211 95.2797 104.702 95.0519 105.15C100.374 110.791 104.414 117.769 106.775 125.157C104.505 124.048 102.326 122.712 100.185 121.368C99.1216 120.7 96.9881 118.908 96.0921 118.536C95.9175 118.46 95.5834 118.483 95.6442 118.68C99.152 124.845 103.867 129.576 109.804 133.395C113.942 136.052 119.174 138.125 122.735 141.519C123.023 141.792 123.281 142.179 123.319 142.589C123.851 142.665 123.615 141.914 123.547 141.61C123.091 139.522 121.459 135.839 120.472 133.858C119.766 132.43 118.134 130.471 117.602 129.204C117.541 129.067 117.526 128.71 117.746 128.756C126.288 135.802 131.489 146.173 131.732 157.327C132.582 157.478 132.225 157.122 132.408 156.666C133.266 154.502 133.85 152.604 134.989 150.508C139.605 141.952 151.587 132.658 151.587 122.59V117.625C160.212 124.435 165.071 135.984 159.513 146.348C161.95 150.319 164.198 154.639 163.78 159.445C159.164 161.434 155.466 165.785 153.993 170.56C155.246 169.467 155.884 167.827 156.993 166.491C161.153 161.503 166.051 159.779 172.337 158.83L169.034 163.196C168.989 163.423 169.338 163.401 169.482 163.34C171.388 162.565 176.422 157.775 178.237 156.142C178.707 155.717 178.449 154.988 179.262 155.231C177.933 160.181 181.874 164.851 186.778 165.451C186.938 164.631 186.573 164.934 186.171 164.722C182.116 162.581 179.816 159.278 180.841 154.548C180.917 154.198 181.82 151.275 182.268 151.617L183.172 154.024C183.134 152.475 183.217 150.311 182.807 148.83C182.716 148.504 180.446 143.751 180.112 143.106C179.459 141.838 177.728 140.395 177.303 139.302C176.923 138.337 177.007 136.978 176.718 135.976C176.012 133.493 172.8 129.409 177.887 129.993C182.306 130.502 182.01 133.956 183.726 137.085C184.501 138.489 185.875 139.78 186.535 141.192C187.94 144.176 187.94 143.774 189.618 146.226C190.013 146.796 190.977 149.461 191.44 149.506C192.116 149.582 191.349 147.942 191.729 147.395C192.01 146.993 192.359 147.084 192.784 147.107L193.073 148.132L193.688 148.307L194.895 145.604C193.521 144.632 191.357 146.363 190.597 146.165C190.165 146.052 188.737 144.586 188.859 143.971C190.658 142.696 192.761 141.936 194.895 141.39C194.629 142.734 195.593 144.047 194.895 145.292C195.229 145.353 195.457 145.292 195.647 144.996C195.927 144.556 195.859 138.914 195.806 137.912C195.677 135.65 193.999 131.527 196.679 130.084C197.704 129.53 198.919 129.363 199.671 130.441C200.065 131.011 201.311 136.424 201.432 137.396C201.888 140.987 201.447 145.194 200.308 148.595C200.825 149.142 202.207 146.72 202.115 146.196L202.859 147.995C203.611 145.9 206.625 143.964 207.483 142.392C207.65 142.081 209.792 136.105 209.86 135.741C210.285 133.44 209.473 129.401 211.743 127.7C212.844 126.88 215.023 126.698 215.342 128.3C214.985 130.836 215.843 133.691 215.645 136.113C215.448 138.535 214.005 141.078 213.846 143.485C214.393 143.356 214.423 142.513 214.848 142.088C215.964 140.964 217.012 141.769 217.141 141.678C217.217 141.625 217.627 140.365 217.931 139.902C218.569 138.922 219.556 138.117 220.026 137.191C221.059 135.179 220.748 132.719 223.018 131.155C224.028 130.456 226.64 130.001 227.027 131.367C227.376 132.597 225.425 138.102 225.334 139.788C223.686 141.45 222.403 144.601 220.877 146.165C219.062 148.026 210.429 151.617 207.43 153.47C204.606 155.216 202.055 157.357 199.261 159.134L195.495 161.533L197.294 161.237C197.355 164.145 194.948 164.851 193.376 166.483C189.61 170.409 186.839 177.91 183.407 182.678C172.504 197.826 158.147 199.329 141.8 204.834C136.219 206.717 134.397 207.339 128.27 207.84C127.943 207.871 126.873 208.083 126.926 207.544L144.966 199.124L124.215 206.033L164.669 175.655L121.808 203.626L146.773 172.793L146.629 172.345L141.511 177.758C141.268 177.804 141.359 177.5 141.352 177.303C141.291 174.752 142.172 168.655 142.703 166.02C143.66 161.298 146.059 156.992 147.471 152.437C147.547 152.194 147.935 151.746 147.532 151.594C143.045 154.13 140.281 155.254 138.102 160.204C136.591 163.628 135.513 168.025 135.498 171.737C138.299 166.255 140.608 160.265 144.973 155.8C142.073 163.34 140.41 170.803 140.304 178.95L118.657 202.427L121.216 193.407L118.657 197.613L115.803 203.634C115.301 203.71 115.491 202.92 115.499 202.579C115.506 201.842 115.666 201.326 115.727 200.696C115.757 200.362 116.083 199.671 115.514 199.731C114.664 201.66 114.193 204.196 112.803 205.745C113.525 204.469 111.877 200.756 111.961 200.232C112.067 199.564 113.426 198.547 113.768 197.841C114.466 196.398 114.778 192.268 113.274 191.288L95.0595 190.408C95.2038 190.901 96.244 191.136 96.7071 191.311C99.2507 192.291 102.796 193.354 105.461 193.991C107.071 194.371 108.445 194.971 110.101 194.318L109.804 196.421C110.579 196.565 110.336 196.284 110.548 195.829C110.989 194.857 111.239 193.589 111.315 192.518C112.302 191.501 113.418 195.912 111.437 198.205C108.233 201.895 102.888 199.64 98.6812 200.043C98.6736 200.491 99.7518 200.483 100.124 200.551C103.647 201.174 107.473 201.083 111.012 200.642C111.239 203.118 110.761 205.676 108.4 206.906C105.75 208.281 99.319 208.205 96.1301 208.47C95.1127 208.554 94.1636 209.108 93.131 209.078C90.4356 209.01 87.9529 207.628 86.6925 205.274C85.2575 202.609 84.0958 199.299 82.6912 196.641C81.6358 194.637 80.626 194.796 80.0717 192.04C79.2441 187.963 78.2495 186.11 78.538 181.547C78.6899 179.171 79.2897 176.802 79.7376 174.478L78.4621 177.257C77.6649 180.363 77.1865 183.643 77.6345 186.809C76.9132 185.738 74.476 183.028 74.1647 182.01C73.208 178.912 75.3719 172.504 76.8828 169.657C79.6845 164.388 85.098 160.022 91.324 160.022C92.8121 160.022 94.2092 160.599 95.6821 160.493C91.734 156.886 86.7001 155.018 82.1521 152.369C82.471 151.913 84.5817 153.143 84.2552 152.072C84.073 151.488 82.7139 149.643 82.2736 148.937C82.1141 148.679 81.5219 148.284 82.0002 148.003C84.9006 149.521 86.2597 154.054 89.6688 154.168C87.596 149.681 85.7662 145.922 81.9927 142.597C76.6778 137.905 71.2643 136.622 64.7119 134.465C64.6435 133.919 65.3572 134.207 65.6761 134.245C66.7543 134.389 67.7945 134.875 68.9182 134.761C66.648 132.491 66.033 130.927 66.2152 127.693C66.2304 127.351 66.0178 126.865 66.5113 126.949C68.8043 131.846 75.1821 132.62 78.986 135.976C79.8439 136.728 81.4384 139.226 81.8484 139.446C82.9949 140.084 84.8475 136.098 85.1664 135.217C88.3932 126.387 84.2021 115.985 73.3674 118.908C68.2121 120.297 64.1956 125.817 62.2974 130.547C61.5533 130.145 62.3202 128.49 62.4644 127.86C62.5176 127.639 62.8744 126.668 62.2974 127.093C61.1357 128.9 58.5239 132.066 58.2126 134.154C57.8633 136.5 62.8972 137.449 64.6132 138.322C66.5872 139.317 68.9182 140.964 70.4215 142.589C66.3063 140.987 61.3787 139.431 57.1648 141.564C58.9642 146.682 64.4537 149.863 69.2143 151.921C69.2826 152.46 68.5385 152.209 68.2045 152.179C66.3519 152.012 64.3778 151.397 62.5252 151.693C62.2594 151.738 61.6217 151.822 61.7052 152.217C68.7511 153.378 73.823 158.397 77.6345 164.122L79.1454 163.651C76.6323 167.463 74.7873 171.753 74.028 176.278C72.6082 174.82 74.2558 171.828 74.028 169.961C73.5497 170.021 73.3902 171.062 73.2839 171.464C73.0789 172.201 72.5323 174.311 72.5323 174.919V179.277L66.6632 172.056V173.856C61.0522 171.138 56.0563 169.125 52.2524 163.909C50.992 162.178 50.4985 160.348 49.5039 158.837C48.2435 156.909 45.2444 155.201 44.5535 152.513C46.1707 153.265 47.7272 154.13 49.4355 154.7C50.6579 155.102 54.1353 156.119 55.2287 156.119H59.5868L59.5641 156.112ZM102.273 120.016C95.3405 105.287 81.2638 92.8653 63.9146 98.9545C50.8705 103.525 47.3627 117.534 46.6338 129.948C47.507 130.115 47.1122 129.697 47.3096 129.287C56.0942 111.201 75.9945 105.105 93.9434 114.064L102.273 120.016ZM85.136 145.581C86.1458 146.37 87.9149 142.513 88.1958 141.876C90.7621 136.105 90.428 128.71 87.0873 123.327C86.6925 123.524 87.0645 124.147 87.1784 124.435C90.0788 131.861 88.2566 138.596 85.136 145.573V145.581ZM54.4542 124.526C53.9835 124.079 52.184 126.576 51.9259 126.956C49.2305 130.942 49.7772 133.622 48.5927 137.76C48.2207 139.066 47.4463 140.076 47.0135 141.291C46.0872 143.865 45.7227 146.181 46.3453 148.891C47.3779 149.134 46.854 147.433 46.9831 146.674C47.5526 143.219 50.2859 138.33 52.0094 135.156C52.4878 134.283 53.6646 133.212 53.414 132.354L51.0072 135.057C51.0148 131.405 52.5333 127.67 54.4694 124.534L54.4542 124.526ZM152.209 130.092C152.353 132.506 152.209 135.164 152.209 137.609C152.209 139.097 150.341 144.305 149.559 145.786C148.215 148.314 146.302 149.605 144.389 151.594C154.138 149.567 154.548 136.454 152.202 128.74C151.412 128.786 152.194 129.887 152.202 130.092H152.209ZM118.414 148.694C115.355 145.74 109.949 144.434 106.183 141.526C105.947 141.344 105.606 140.714 105.287 141.223C110.533 147.001 117.488 151.207 121.277 158.314L124.23 164.532C124.276 159.544 122.051 152.209 118.414 148.701V148.694ZM188.001 153.401L184.394 150.698C183.999 151.131 186.968 154.039 188.001 153.401ZM129.044 174.456C129.857 170.454 129.682 166.415 128.9 162.421L127.844 158.822C128.429 163.082 129.219 167.592 129.044 171.904C129.014 172.557 128.277 174.091 129.044 174.463V174.456ZM115.81 188.897C117.078 190.977 120.685 190.787 121.596 188.517C122.12 187.211 121.831 184.007 122.203 182.2C122.757 179.505 124.314 177.652 123.934 174.6C123.722 172.838 121.383 171.745 120.161 170.553C118.756 169.179 115.871 165.253 114.709 164.578C112.712 163.416 109.971 163.788 107.747 163.12C105.143 162.338 103.692 160.447 100.625 160.622C96.3351 160.872 87.6036 163.173 84.2477 165.906C83.086 166.855 81.6814 168.328 81.6662 169.938C84.6956 168.503 86.3736 165.284 89.6384 164.228C87.4214 166.757 85.2347 170.386 87.6871 173.544C87.596 170.971 87.1101 168.085 89.7903 166.635C90.2914 168.009 90.914 168.025 92.2882 168.343C94.5964 168.883 96.9349 169.012 99.2659 168.738L97.7625 170.538L110.716 173.689L111.004 175.055C111.649 175.146 111.49 175.078 111.672 174.676C112.211 173.506 112.059 172.459 112.204 171.297C112.257 170.879 112.348 170.416 112.796 170.849C113.791 173.036 114.109 175.017 113.069 177.295C112.879 177.713 112.803 178.138 112.204 178.077C112.363 179.003 113.563 178.328 114.018 177.849C116.304 175.465 115.636 169.725 112.318 168.176C108.073 166.202 102.895 165.868 98.3623 164.836L100.162 164.092L97.4588 162.74C101.43 161.768 104.467 163.742 108.051 164.927C110.974 165.891 112.636 165.246 114.891 168.009C115.544 168.807 115.909 169.877 116.539 170.576C117.526 171.677 119.493 172.664 120.616 173.719L118.817 173.567C118.187 174.41 121.216 175.025 121.824 174.774C122.059 174.987 120.768 177.652 120.639 178.252C120.442 179.148 121.489 177.91 121.216 178.829C120.685 180.628 119.774 183.035 119.736 184.895C119.675 188.38 121.345 190.635 115.803 188.912L115.81 188.897ZM86.6393 168.146C86.0775 168.017 85.9256 168.457 85.584 168.746C83.9288 170.135 82.843 171.98 81.8256 173.856C82.1597 174.167 84.5514 171.669 84.8323 171.305C85.5384 170.371 85.956 169.118 86.6393 168.146ZM94.7558 181.076C91.9845 179.618 89.2284 177.614 87.391 175.063C86.161 177.295 83.6858 178.973 83.7465 181.775C83.7617 182.663 84.2401 184.918 85.4397 184.979C84.6501 183.119 83.5795 180.401 85.8953 179.269C85.9408 180.56 87.3303 180.499 88.3856 180.689C90.4432 181.061 92.6375 180.894 94.6116 181.676L94.7634 181.076H94.7558ZM110.245 188.897C108.013 189.223 104.254 188.897 101.825 188.897C101.65 188.897 100.526 188.099 100.473 188.897C101.635 189.041 102.812 189.329 103.966 189.466C105.963 189.701 108.931 190.074 110.86 190.111C115.863 190.218 116.456 180.864 112.872 179.656L95.8112 177.166C95.0975 178.108 96.859 177.69 96.859 178.373C96.1301 178.533 95.4392 178.267 94.771 178.206C94.361 178.168 94.0573 177.773 94.156 178.525C98.7875 182.109 104.938 183.589 110.7 184.091V186.194L111.763 183.506L111.9 181.388C114.254 181.524 113.95 185.48 113.168 187.014C112.72 187.887 111.171 188.768 110.245 188.904V188.897ZM125.741 187.689C127.404 185.579 128.664 182.967 129.644 180.469C128.042 182.572 126.387 185.093 125.741 187.689ZM71.2035 187.219L70.7784 187.568L74.7113 192.359L75.1365 192.01L71.2035 187.219ZM86.6393 197.613C85.9332 196.368 84.7336 194.287 84.5969 192.868C84.4678 191.546 85.2195 190.203 84.688 188.897C83.9743 190.142 83.4808 192.078 83.701 193.483C83.8073 194.166 85.8725 198.349 86.6393 197.613ZM91.7492 192.807C89.8282 192.032 88.6438 190.499 86.3356 191C85.7662 192.799 89.0234 193.027 90.3901 193.118C90.7166 193.141 91.8099 193.323 91.7492 192.807ZM159.726 191.903C155.952 193.073 152.103 194.151 149.202 197.013C152.361 195.905 155.96 194.371 158.838 192.663C159.164 192.465 159.665 192.359 159.733 191.903H159.726Z" fill="#F2C76B"/>
<path d="M74.3011 211.454V229.654C79.4869 232.015 84.1639 235.963 86.3885 241.331C91.3997 253.434 84.7789 265.817 73.8152 271.527C69.4646 271.428 64.8483 270.35 60.5737 270.13C60.027 270.1 59.6322 270.054 59.2677 270.563L72.7978 272.514V281.238L73.3976 278.376C73.3217 276.667 73.3976 275.05 74.0429 273.456L88.4082 274.351C88.5752 276.219 88.5297 278.353 88.7271 280.198C88.7726 280.646 88.7954 281.124 89.3345 281.238L90.0102 273.79L95.0517 271.907C95.0593 271.383 95.2188 271.269 94.6265 271.33C92.6524 271.55 90.5265 272.431 88.5524 272.787L77.3002 271.907L83.4654 266.501C94.5506 253.73 91.1187 235.94 75.7893 228.902V212.358C77.4444 212.312 79.1072 212.419 80.7624 212.373C86.3506 212.214 91.9767 212.335 97.5801 212.373C103.396 212.411 109.212 212.312 115.028 212.373C117.533 213.474 116.972 216.724 116.956 218.956C99.4478 221.552 99.8275 245.742 117.245 248.203L117.89 270.419L98.1875 271.018L97.1321 271.466L117.89 271.922L118.194 280.646L78.1885 281.845L88.8713 282.749C111.513 283.121 135.179 284.419 157.714 282.111C158.055 282.073 159.369 281.974 159.407 281.549C155.436 281.443 151.495 282.043 147.517 281.861C144.783 281.739 141.86 281.086 139.104 280.949C132.354 280.608 125.582 280.631 118.801 280.646V271.922L139.856 271.618C139.742 271.071 139.264 271.056 138.816 271.011C132.711 270.327 125.756 271.079 119.842 270.434C119.424 270.388 119.029 270.434 118.839 269.948L119.454 248.666C119.728 247.846 122.507 247.618 123.478 247.276C137.965 242.197 134.966 220.095 119.72 218.979C119.462 218.713 119.918 214.81 120.145 214.165C120.274 213.793 121.489 212.373 121.664 212.373H161.214V228.462C151.275 234.08 144.973 243.184 147.577 255.028C149.172 262.256 154.168 268.004 160.007 272.226C158.556 272.294 157.083 272.142 155.633 272.218C153.431 272.332 150.569 272.848 148.42 272.833C146.993 272.825 144.343 271.527 142.688 271.345C142.096 271.276 142.247 271.406 142.263 271.922L147.228 274.025L147.676 281.246C148.041 281.724 148.223 281.246 148.276 280.805C148.42 279.598 148.42 274.663 149.164 274.169L162.998 273.44L164.213 281.246V272.522C168.199 272.112 172.534 271.686 176.414 270.722C176.923 270.593 177.287 271.018 177.143 270.115L162.846 271.474C147.274 263.281 142.84 241.422 159.308 231.37C160.098 230.884 162.71 230.064 162.71 229.358V211.462L190.544 210.87L214.142 208.751C214.764 209.328 210.27 213.147 209.776 213.557C203.596 218.637 194.758 223.268 187.37 226.336C179.087 229.783 168.123 231.605 162.588 239.152C156.711 247.17 159.171 257.101 166.483 263.183C170.94 266.888 176.24 268.148 181.676 269.705L181.645 277.616C177.12 278.793 172.079 279.325 167.622 280.6C167.113 280.744 166.779 280.372 166.923 281.238C173.195 280.57 179.565 279.947 185.571 277.928C186.087 276.257 182.61 276.257 182.306 275.786L182.268 273.721C182.686 273.304 191.303 275.452 192.488 275.984C198.85 278.831 189.17 281.079 186.725 281.64C172.162 284.966 154.957 285.467 139.992 286.044C114.056 287.039 86.3961 286.872 60.642 283.303C56.1623 282.681 48.2053 281.762 44.3027 279.788C43.5206 279.393 41.706 278.474 42.3817 277.472C43.9382 275.164 51.6675 274.23 54.4312 273.721L54.6134 275.84C54.1047 276.493 50.8703 276.105 51.2651 277.639C52.2977 279.211 67.9689 281.056 70.6718 281.238L55.6233 277.487L55.3196 269.705C63.4361 267.632 71.6133 264.937 75.8348 257.078C82.0759 245.454 74.2404 235.933 63.7398 231.468C54.5147 227.543 46.0642 225.356 37.0821 220.231C31.8736 217.263 26.0576 213.626 22.5422 208.751L46.1401 210.87L60.2775 211.469L74.2783 211.454H74.3011ZM71.8942 232.509C72.2283 232.175 70.8161 230.96 70.5352 230.709C65.4709 226.176 56.8381 224.794 50.4679 222.501C45.8819 220.854 41.4782 218.774 37.0062 216.868C42.1388 220.588 48.1445 223.261 54.0744 225.508C60.0042 227.756 66.5339 229.031 71.8942 232.501V232.509ZM200.035 216.868L185.07 223.109C178.221 225.478 170.09 226.374 165.147 232.205C176.589 226.708 189.747 224.703 200.035 216.868Z" fill="#F2C76B"/>
<path d="M87.5428 47.9777C87.9832 53.5355 91.8858 61.4166 96.7147 64.4005C97.2006 64.6966 97.6258 64.3626 97.9143 64.6511C98.4838 65.2129 99.0305 67.3085 99.5164 68.1816C100.769 70.4215 101.984 71.5148 103.988 73.0333C105.158 73.9217 106.653 74.8935 107.99 75.4933C106.084 73.1244 103.305 71.7274 101.377 69.3205C100.481 68.2044 99.3645 66.3442 98.7192 65.0611C98.5521 64.7194 97.2234 61.8342 97.6106 61.9557L100.678 64.3018L103.48 65.714C99.0684 61.3938 94.2167 56.8459 92.7438 50.582C90.6102 41.5316 93.6853 32.018 100.169 25.5567C98.7951 28.9658 97.6258 32.5571 97.1703 36.2395C96.4717 41.8277 97.5651 48.4788 101.225 52.9357C102.44 54.4162 104.725 55.8892 105.727 57.1572C106.95 58.7061 107.808 62.5024 109.144 64.2639L112.5 69.4724C111.763 66.9061 110.032 64.5524 108.939 62.062C107.633 59.0781 106.555 55.912 105.978 52.6927C105.811 51.7588 105.218 48.4029 105.332 47.7423C105.583 46.2694 110.237 43.0729 111.467 41.8201C114.58 38.6616 116.843 34.5008 118.369 30.378C120.457 35.6169 123.076 39.398 127.085 43.3158C128.224 44.4244 131.155 46.1631 131.436 47.6816C131.777 49.5038 130.601 54.8262 130.024 56.7699C128.854 60.7029 126.736 63.907 125.179 67.5666C125.066 67.84 124.526 68.3335 124.974 68.5689C125.832 67.5439 126.599 66.3139 127.283 65.1598C128.589 62.9579 129.735 59.6248 131.011 57.757C132.036 56.2536 134.26 54.7123 135.505 53.2318C140.349 47.4538 140.866 39.2386 139.112 32.1699L137.001 25.5567C142.764 31.9876 146.127 40.3547 144.594 49.0862C143.356 56.0866 138.429 61.2724 133.25 65.714C133.486 66.162 133.972 65.6457 134.237 65.5014C136.044 64.5068 137.609 63.1629 139.264 61.9557C137.601 68.212 133.266 71.8489 128.437 75.6452C128.391 75.873 128.74 75.8502 128.885 75.7894C129.591 75.5009 134.442 72.0539 135.05 71.4313C136.766 69.6774 137.555 66.8074 138.839 65.2889C139.332 64.6966 140.463 64.2031 141.078 63.6185C148.618 56.3751 148.853 53.3457 149.195 43.1564C149.21 42.7919 148.967 42.0403 149.491 42.1086C151.959 50.2707 151.374 58.8731 145.74 65.5698C143.797 67.8779 141.147 69.3661 139.264 71.4237C138.011 72.798 136.864 74.7189 135.505 76.0931C135.095 75.425 135.596 74.5367 135.657 73.8305C135.688 73.5041 135.877 72.7068 135.361 72.7828C134.473 76.2526 133.19 79.6996 131.39 82.7974C130.266 84.726 128.725 86.4039 127.594 88.3249C124.823 93.0475 124.018 98.3091 121.679 103.161C121.444 103.654 120.631 104.307 121.064 104.657C125.05 101.832 124.564 96.9273 126.273 92.721C127.579 89.5093 130.145 86.2748 132.339 83.6022C130.373 88.3021 130.061 93.4423 128.885 98.3471C128.186 101.255 126.022 106.365 126.022 109.022V114.74C126.022 114.793 126.425 115.21 126.622 115.188C126.531 107.466 130.449 100.496 131.443 92.9336L133.023 99.6227C135.019 103.525 138.687 105.978 140.304 110.085C144.487 120.669 140.327 129.781 135.202 138.96L133.546 144.366C133.281 137.836 131.405 131.481 128.179 125.817C122.066 115.089 109.873 108.377 100.177 101.179C94.3914 96.8817 89.8282 92.4249 83.3137 88.8639C79.3048 86.6773 73.785 85.2119 70.5126 82.4102C65.7748 78.3558 62.9883 73.6331 56.694 71.2642C49.6329 68.6068 43.0729 70.2392 37.591 75.182C37.143 74.6809 41.2431 70.6796 41.7973 70.2165C49.6025 63.702 61.1053 64.1044 68.8422 70.5505C72.4335 73.542 74.6658 78.2343 78.3558 81.1878C84.5589 86.1534 91.8251 85.7434 95.796 78.4848L97.1475 73.6787C98.7875 76.207 100.298 79.115 100.154 82.2432C100.101 83.3669 99.5316 84.7184 99.5468 85.8421C99.5999 90.1167 102.834 96.4565 105.264 99.8428C105.135 98.423 104.155 97.2614 103.677 95.8643C101.992 90.9291 102.03 85.8573 101.657 80.7322C101.635 80.4058 101.475 79.9122 101.954 79.9882C104.793 85.0373 108.369 88.75 110.161 94.4901C111.323 98.2104 111.11 101.794 114.588 104.345C112.5 99.9795 111.763 95.0899 109.736 90.7013C106.798 84.3539 101.042 79.0467 100.754 71.5604C99.8656 70.3911 100.306 74.8859 100.002 74.8707C98.833 73.7926 98.3547 72.1298 97.2614 70.9985C96.168 69.8672 94.3838 68.8953 93.2297 67.8096C85.6826 60.7029 84.3995 51.4855 87.5201 41.7897C88.3476 41.8884 87.5201 43.2475 87.5201 43.4449C87.5201 44.9027 87.4062 46.5351 87.5201 47.9549L87.5428 47.9777ZM118.824 81.5143C118.764 66.2683 119.052 50.9996 118.369 35.7915C118.058 50.8325 117.799 65.8431 117.913 80.9069C117.481 80.9752 117.503 80.383 117.405 80.0717C116.547 77.3991 115.863 74.7417 114.838 72.1146C114.77 71.9324 114.368 70.4291 114.003 70.8391C116.38 77.1485 117.602 83.8224 118.225 90.5343L120.176 80.0034L122.735 71.287L118.832 81.5143H118.824ZM114.003 84.2248C113.305 80.96 110.533 78.5 107.967 76.5791C107.603 76.3057 104.877 74.4 104.687 74.5974C105.34 76.2222 105.841 78.3633 106.934 79.7148C108.848 82.0837 112.31 81.5371 114.003 84.2172V84.2248ZM122.735 84.2248C124.39 81.5143 127.617 82.3115 129.507 80.0185C130.616 78.6746 131.307 76.5639 131.755 74.9011C128.209 77.1485 123.593 79.768 122.735 84.2248ZM117.921 101.065V104.975H118.521V101.065H117.921Z" fill="#F2C76B"/>
<path d="M187.188 118.43C185.943 117.344 184.265 112.826 184.098 111.133C182.063 90.9747 210.095 87.3302 214.036 105.552C214.218 106.395 214.643 108.627 214.036 109.189C212.935 110.214 208.356 112.325 206.762 113.046C202.404 115.013 196.603 117.131 191.926 118.065C190.992 118.247 187.758 118.923 187.188 118.43Z" fill="#F2C76B"/>
<path d="M107.39 10.8347C107.519 11.3737 104.421 11.1991 105.287 12.0343L110.7 13.5376C90.9593 14.8587 71.7348 22.0869 55.8662 33.7492C24.8276 56.5574 8.40481 96.1681 15.0484 134.45C14.9117 134.594 12.3226 133.326 12.0569 133.083C11.3432 132.423 10.9559 128.042 10.842 126.781C7.45574 89.274 24.8732 52.1613 55.2588 30.4388C70.4669 19.5662 88.7043 12.581 107.39 10.8347Z" fill="#F2C76B"/>
<path d="M194.189 41.0381C204.37 51.0528 212.867 63.9374 218.432 77.103C219.275 79.0923 220.588 82.0838 221.059 84.111C221.173 84.5969 221.097 84.559 220.641 84.5286C219.692 84.4603 218.652 84.0427 217.688 83.9364C204.56 45.7076 169.201 17.1593 128.634 13.811L126.341 13.2491L131.451 12.0419L129.348 10.8423C153.606 13.1049 176.885 24.0307 194.189 41.0457V41.0381Z" fill="#F2C76B"/>
<path d="M118.179 226.45C108.908 227.422 110.009 241.24 119.242 240.291C127.389 239.456 126.971 226.845 118.521 226.488L119.728 220.778C135.171 222.335 135.035 244.824 119.728 246.35C119.887 244.429 119.963 241.126 117.367 242.933L117.321 246.35C105.127 245.401 101.134 228.978 111.748 222.578C112.674 222.016 116.19 220.277 117.04 220.907C117.48 222.821 118.65 224.415 118.187 226.457L118.179 226.45Z" fill="#F2C76B"/>
<path d="M178.373 109.493C176.634 111.391 170.34 115.643 173.878 118.346C176.331 120.221 181.995 119.789 184.986 119.72L183.787 120.616C196.094 120.244 210.892 115.134 220.186 106.934C230.223 98.0814 227.983 90.747 214.825 88.5299C205.707 86.9886 196.664 88.4236 187.856 90.8457C187.378 90.5344 188.084 90.4736 188.304 90.3977C197.939 86.7608 211.788 85.1664 221.697 88.287C235.272 92.5616 230.064 101.726 221.484 107.937C219.905 109.076 214.977 111.498 214.172 112.356C213.808 112.743 213.573 114.276 213.223 115.021C209.602 122.742 201.455 126.971 193.209 123.388C192.298 122.993 190.02 121.269 189.641 121.216C188.532 121.072 184.872 122.029 183.339 122.127C180.362 122.309 170.788 122.135 170.006 118.301C169.414 115.4 175.792 110.359 178.373 109.501V109.493Z" fill="#F2C76B"/>
<path d="M180.18 204.537C188.046 198.471 195.624 192.01 201.652 184.053C208.744 174.691 213.595 163.841 217.209 152.695L221.074 150.098C216.974 165.268 209.875 179.922 199.276 191.607C197.787 193.255 186.194 204.537 185.138 204.537H180.173H180.18Z" fill="#F2C76B"/>
<path d="M184.007 87.7099C188.125 87.7099 191.463 84.3717 191.463 80.2539C191.463 76.1361 188.125 72.798 184.007 72.798C179.889 72.798 176.551 76.1361 176.551 80.2539C176.551 84.3717 179.889 87.7099 184.007 87.7099Z" fill="#F2C76B"/>
<path d="M206.944 208.144L204.689 208.736C180.332 209.867 155.854 210.429 131.451 209.488C134.511 208.888 137.624 208.06 140.714 207.62C151.989 206.01 164.965 207.294 176.407 207.544C180.621 207.635 184.857 207.726 189.041 207.848C195.001 208.015 200.984 208.007 206.952 208.136L206.944 208.144Z" fill="#F2C76B"/>
<path d="M51.5992 204.537C38.6083 194.675 27.5231 181.706 21.0693 166.643C22.3525 167.903 23.3092 169.535 24.524 170.857C25.6249 172.056 27.3788 173.263 28.2899 174.304C29.6794 175.883 31.1751 178.988 32.5494 180.871C39.3144 190.111 47.3626 197.75 56.5572 204.537H51.5916H51.5992Z" fill="#F2C76B"/>
<path d="M147.395 123.927L146.795 122.12C146.682 125.794 145.072 129.416 142.582 132.043C144.024 127.761 145.315 123.251 144.647 118.695C143.872 113.396 140.964 108.772 138.671 104.072C148.944 103.715 151.67 115.263 148.003 123.183C147.866 123.479 147.828 123.889 147.395 123.927Z" fill="#F2C76B"/>
<path d="M128.748 11.4345L120.601 13.9628L118.369 23.4688L116.357 13.9021L107.99 11.5863L116.114 9.47558L118.369 0L120.624 9.48318L128.748 11.4345Z" fill="#F2C76B"/>
<path d="M118.475 238.704C121.335 238.704 123.653 236.386 123.653 233.526C123.653 230.666 121.335 228.348 118.475 228.348C115.615 228.348 113.297 230.666 113.297 233.526C113.297 236.386 115.615 238.704 118.475 238.704Z" fill="#F2C76B"/>
<path d="M231.833 124.291C234.663 124.291 236.958 121.997 236.958 119.166C236.958 116.336 234.663 114.041 231.833 114.041C229.002 114.041 226.708 116.336 226.708 119.166C226.708 121.997 229.002 124.291 231.833 124.291Z" fill="#F2C76B"/>
<path d="M168.404 102.918C170.073 102.918 171.426 101.565 171.426 99.896C171.426 98.2271 170.073 96.8741 168.404 96.8741C166.735 96.8741 165.382 98.2271 165.382 99.896C165.382 101.565 166.735 102.918 168.404 102.918Z" fill="#F2C76B"/>
<path d="M202.138 139.864C203.573 139.795 208.045 140.835 206.208 142.878C205.623 143.523 202.89 145.482 202.138 144.525V139.864Z" fill="#F2C76B"/>
<path d="M234.551 106.251C235.503 106.251 236.275 105.479 236.275 104.528C236.275 103.576 235.503 102.804 234.551 102.804C233.599 102.804 232.828 103.576 232.828 104.528C232.828 105.479 233.599 106.251 234.551 106.251Z" fill="#F2C76B"/>
<path d="M188.563 131.534C189.414 131.534 190.104 130.844 190.104 129.993C190.104 129.142 189.414 128.452 188.563 128.452C187.711 128.452 187.021 129.142 187.021 129.993C187.021 130.844 187.711 131.534 188.563 131.534Z" fill="#F2C76B"/>
<path d="M227.118 86.1914C227.885 86.1914 228.507 85.5693 228.507 84.8019C228.507 84.0346 227.885 83.4125 227.118 83.4125C226.35 83.4125 225.728 84.0346 225.728 84.8019C225.728 85.5693 226.35 86.1914 227.118 86.1914Z" fill="#F2C76B"/>
<path d="M202.48 79.9958C202.996 79.9958 203.414 79.5777 203.414 79.0619C203.414 78.5462 202.996 78.1281 202.48 78.1281C201.964 78.1281 201.546 78.5462 201.546 79.0619C201.546 79.5777 201.964 79.9958 202.48 79.9958Z" fill="#F2C76B"/>
<path d="M70.9986 98.9621L65.7901 101.726L62.8745 104.224L69.1915 102.872L63.9375 106.183C62.4873 107.504 61.5837 109.235 60.7713 110.981C61.5078 111.027 62.1608 110.655 62.8593 110.518C63.1706 110.457 63.8463 110.131 63.778 110.685C57.6204 113.206 52.7687 117.921 49.0483 123.319C49.6254 119.045 51.6298 115.074 53.8545 111.437C53.0572 110.958 52.7763 112.53 52.1993 112.788C51.8348 112.674 52.1158 112.15 52.1993 111.892C54.8035 103.928 62.51 98.256 70.9986 98.9621Z" fill="#F2C76B"/>
<path d="M160.468 374.566H154.624L154.593 371.347H159.499C160.363 371.347 161.072 371.238 161.624 371.019C162.176 370.79 162.587 370.462 162.858 370.035C163.139 369.597 163.28 369.066 163.28 368.441C163.28 367.733 163.145 367.16 162.874 366.722C162.613 366.285 162.202 365.967 161.639 365.769C161.087 365.571 160.374 365.472 159.499 365.472H156.249V384.55H151.561V361.8H159.499C160.822 361.8 162.004 361.925 163.046 362.175C164.098 362.425 164.988 362.806 165.718 363.316C166.447 363.827 167.004 364.472 167.389 365.254C167.775 366.024 167.968 366.941 167.968 368.004C167.968 368.941 167.754 369.806 167.327 370.597C166.91 371.389 166.249 372.035 165.343 372.535C164.447 373.035 163.275 373.311 161.827 373.363L160.468 374.566ZM160.264 384.55H153.343L155.171 380.894H160.264C161.087 380.894 161.759 380.764 162.28 380.504C162.801 380.233 163.186 379.868 163.436 379.41C163.686 378.952 163.811 378.425 163.811 377.832C163.811 377.165 163.697 376.587 163.468 376.097C163.249 375.608 162.895 375.233 162.405 374.972C161.915 374.702 161.27 374.566 160.468 374.566H155.952L155.983 371.347H161.608L162.686 372.613C164.072 372.592 165.186 372.837 166.03 373.347C166.884 373.847 167.504 374.498 167.889 375.3C168.285 376.103 168.483 376.962 168.483 377.879C168.483 379.337 168.165 380.566 167.53 381.566C166.895 382.556 165.962 383.3 164.733 383.8C163.514 384.3 162.025 384.55 160.264 384.55Z" fill="#F2C76B"/>
<path d="M147.171 361.8V384.55H142.499V361.8H147.171Z" fill="#F2C76B"/>
<path d="M132.514 361.8V384.55H127.843V361.8H132.514ZM139.514 361.8V365.472H120.952V361.8H139.514Z" fill="#F2C76B"/>
<path d="M118.389 361.8V384.55H113.718V361.8H118.389Z" fill="#F2C76B"/>
<path d="M101.874 374.566H96.03L95.9988 371.347H100.905C101.77 371.347 102.478 371.238 103.03 371.019C103.582 370.79 103.994 370.462 104.264 370.035C104.546 369.597 104.686 369.066 104.686 368.441C104.686 367.733 104.551 367.16 104.28 366.722C104.02 366.285 103.608 365.967 103.046 365.769C102.494 365.571 101.78 365.472 100.905 365.472H97.655V384.55H92.9675V361.8H100.905C102.228 361.8 103.41 361.925 104.452 362.175C105.504 362.425 106.395 362.806 107.124 363.316C107.853 363.827 108.41 364.472 108.796 365.254C109.181 366.024 109.374 366.941 109.374 368.004C109.374 368.941 109.16 369.806 108.733 370.597C108.316 371.389 107.655 372.035 106.749 372.535C105.853 373.035 104.681 373.311 103.233 373.363L101.874 374.566ZM101.671 384.55H94.7488L96.5769 380.894H101.671C102.494 380.894 103.165 380.764 103.686 380.504C104.207 380.233 104.593 379.868 104.843 379.41C105.093 378.952 105.218 378.425 105.218 377.832C105.218 377.165 105.103 376.587 104.874 376.097C104.655 375.608 104.301 375.233 103.811 374.972C103.322 374.702 102.676 374.566 101.874 374.566H97.3582L97.3894 371.347H103.014L104.093 372.613C105.478 372.592 106.593 372.837 107.436 373.347C108.29 373.847 108.91 374.498 109.296 375.3C109.691 376.103 109.889 376.962 109.889 377.879C109.889 379.337 109.572 380.566 108.936 381.566C108.301 382.556 107.369 383.3 106.139 383.8C104.921 384.3 103.431 384.55 101.671 384.55Z" fill="#F2C76B"/>
<path d="M85.2175 377.004H89.8894C89.7957 378.535 89.3738 379.894 88.6238 381.082C87.8842 382.269 86.8477 383.196 85.5144 383.863C84.1915 384.53 82.5977 384.863 80.7332 384.863C79.2748 384.863 77.9675 384.613 76.8113 384.113C75.655 383.603 74.6654 382.873 73.8425 381.925C73.03 380.978 72.4102 379.832 71.9832 378.488C71.5561 377.144 71.3425 375.639 71.3425 373.972V372.394C71.3425 370.728 71.5613 369.222 71.9988 367.879C72.4467 366.524 73.0821 365.373 73.905 364.425C74.7384 363.478 75.7332 362.748 76.8894 362.238C78.0457 361.728 79.3373 361.472 80.7644 361.472C82.6602 361.472 84.2592 361.816 85.5613 362.504C86.8738 363.191 87.8894 364.139 88.6082 365.347C89.3373 366.556 89.7748 367.931 89.9207 369.472H85.2332C85.1811 368.556 84.9988 367.78 84.6863 367.144C84.3738 366.498 83.8998 366.014 83.2644 365.691C82.6394 365.358 81.8061 365.191 80.7644 365.191C79.9832 365.191 79.3009 365.337 78.7175 365.629C78.1342 365.92 77.6446 366.363 77.2488 366.957C76.8529 367.55 76.5561 368.3 76.3582 369.207C76.1707 370.103 76.0769 371.155 76.0769 372.363V373.972C76.0769 375.149 76.1654 376.186 76.3425 377.082C76.5196 377.967 76.7904 378.717 77.155 379.332C77.53 379.936 78.0092 380.394 78.5925 380.707C79.1863 381.009 79.8998 381.16 80.7332 381.16C81.7123 381.16 82.5196 381.004 83.155 380.691C83.7904 380.379 84.2748 379.915 84.6082 379.3C84.9519 378.686 85.155 377.92 85.2175 377.004Z" fill="#F2C76B"/>
<path d="M167.405 338.285H161.218L159.639 337.629C157.858 337.066 156.494 336.222 155.546 335.097C154.608 333.972 154.139 332.54 154.139 330.8C154.139 329.269 154.478 327.988 155.155 326.957C155.843 325.915 156.811 325.129 158.061 324.597C159.322 324.066 160.816 323.8 162.546 323.8H170.483V346.55H165.78V327.472H162.546C161.264 327.472 160.322 327.79 159.718 328.425C159.113 329.061 158.811 329.962 158.811 331.129C158.811 331.983 158.952 332.686 159.233 333.238C159.514 333.78 159.926 334.186 160.468 334.457C161.009 334.717 161.691 334.847 162.514 334.847H167.389L167.405 338.285ZM162.889 336.394L157.843 346.55H152.764L157.827 336.394H162.889Z" fill="#F2C76B"/>
<path d="M147.889 333.066V336.722H136.014V333.066H147.889ZM137.405 323.8V346.55H132.718V323.8H137.405ZM151.233 323.8V346.55H146.561V323.8H151.233Z" fill="#F2C76B"/>
<path d="M121.436 335.644H117.905V333.16H120.718C121.54 333.16 122.207 333.035 122.718 332.785C123.228 332.524 123.603 332.16 123.843 331.691C124.082 331.222 124.202 330.67 124.202 330.035C124.202 329.514 124.066 329.035 123.796 328.597C123.535 328.16 123.129 327.811 122.577 327.55C122.025 327.28 121.322 327.144 120.468 327.144C119.822 327.144 119.233 327.259 118.702 327.488C118.171 327.717 117.749 328.04 117.436 328.457C117.124 328.863 116.968 329.358 116.968 329.941H112.296C112.296 328.941 112.509 328.045 112.936 327.254C113.374 326.452 113.968 325.774 114.718 325.222C115.478 324.66 116.353 324.233 117.343 323.941C118.332 323.649 119.374 323.504 120.468 323.504C121.749 323.504 122.905 323.644 123.936 323.925C124.968 324.196 125.853 324.603 126.593 325.144C127.332 325.686 127.9 326.358 128.296 327.16C128.691 327.962 128.889 328.894 128.889 329.957C128.889 330.738 128.712 331.472 128.358 332.16C128.004 332.847 127.499 333.452 126.843 333.972C126.186 334.493 125.4 334.905 124.483 335.207C123.566 335.498 122.551 335.644 121.436 335.644ZM117.905 334.285H121.436C122.676 334.285 123.775 334.415 124.733 334.675C125.702 334.936 126.52 335.316 127.186 335.816C127.863 336.316 128.374 336.936 128.718 337.675C129.072 338.405 129.249 339.243 129.249 340.191C129.249 341.254 129.03 342.196 128.593 343.019C128.165 343.842 127.556 344.54 126.764 345.113C125.983 345.686 125.056 346.118 123.983 346.41C122.921 346.702 121.749 346.847 120.468 346.847C119.447 346.847 118.431 346.722 117.421 346.472C116.41 346.212 115.494 345.816 114.671 345.285C113.848 344.754 113.191 344.071 112.702 343.238C112.212 342.405 111.968 341.405 111.968 340.238H116.671C116.671 340.79 116.832 341.295 117.155 341.754C117.478 342.202 117.926 342.561 118.499 342.832C119.072 343.092 119.728 343.222 120.468 343.222C121.332 343.222 122.066 343.087 122.671 342.816C123.285 342.545 123.749 342.175 124.061 341.707C124.384 341.228 124.546 340.702 124.546 340.129C124.546 339.514 124.462 338.993 124.296 338.566C124.129 338.139 123.884 337.79 123.561 337.519C123.238 337.238 122.837 337.035 122.358 336.91C121.889 336.785 121.343 336.722 120.718 336.722H117.905V334.285Z" fill="#F2C76B"/>
<path d="M99.8582 338.3L105.452 323.8H110.499L102.702 342.144C102.431 342.769 102.119 343.368 101.764 343.941C101.421 344.504 101.009 345.009 100.53 345.457C100.051 345.894 99.4779 346.243 98.8113 346.504C98.1446 346.754 97.3477 346.879 96.4207 346.879C96.1915 346.879 95.9102 346.873 95.5769 346.863C95.2436 346.853 94.9779 346.837 94.78 346.816L94.7488 343.16C94.8738 343.191 95.0717 343.212 95.3425 343.222C95.6134 343.222 95.8113 343.222 95.9363 343.222C96.5509 343.222 97.0352 343.134 97.3894 342.957C97.7436 342.78 98.0248 342.53 98.2332 342.207C98.4519 341.873 98.6446 341.483 98.8113 341.035L99.8582 338.3ZM96.155 323.8L101.343 335.066L102.796 340.238L99.3113 340.3L91.1238 323.8H96.155Z" fill="#F2C76B"/>
<path d="M76.7332 323.8V346.55H72.0457V323.8H76.7332ZM90.1394 323.8L81.4207 337.16H75.6863L75.0925 332.988H78.9207L84.4519 323.8H90.1394ZM85.3113 346.55L78.9363 336.379L82.1863 333.035L90.8738 346.55H85.3113Z" fill="#F2C76B"/>
</svg>
